<?xml version="1.0" encoding="utf-8"?>
<!-- Generator: Adobe Illustrator 23.0.4, SVG Export Plug-In . SVG Version: 6.00 Build 0)  -->
<svg version="1.1" id="Layer_1" xmlns="http://www.w3.org/2000/svg" xmlns:xlink="http://www.w3.org/1999/xlink" x="0px" y="0px"
	 viewBox="0 0 32.8 48" style="enable-background:new 0 0 32.8 48;" xml:space="preserve">
<style type="text/css">
	.st0{fill:#FF4F1F;}
</style>
<title>ear</title>
<g>
	<g id="Ear">
		<g id="Ear_listen">
			<g>
				<path class="st0" d="M30.6,15.5C29.2,6.7,20.8,0.8,12,2.2C8.4,2.8,5,4.7,2.5,7.5C2.2,7.9,2,8.4,2.1,9c0,0.5,0.3,1,0.7,1.4
					c0.1,0.1,0.2,0.1,0.3,0.2C3.9,11,5,10.9,5.6,10.1c2.2-2.4,5.3-3.9,8.5-4.1h0.6c2.7,0,5.3,0.9,7.4,2.6l-1.2,1.6
					c-1.8-1.4-4-2.2-6.3-2.2h-0.5C11.4,8.1,8.8,9.4,7,11.4c-1.2,1.4-3.3,1.8-5,0.9c-0.2-0.1-0.4-0.3-0.6-0.4
					C0.6,11.2,0.1,10.2,0,9.2c0-1.1,0.3-2.2,1-3c2.8-3.2,6.6-5.3,10.7-6c9.9-1.6,19.3,5.1,20.9,15L30.6,15.5z"/>
			</g>
			<g>
				<path class="st0" d="M13,33.2L11.4,32c1.6-1.9,3.7-3.3,6.1-4c5-1.4,8.1-6.4,7.3-11.5l2-0.3c1,6.1-2.7,12-8.7,13.8
					C16.1,30.5,14.3,31.6,13,33.2z"/>
			</g>
			<g>
				<path class="st0" d="M6.9,48c-3.6,0-6.6-2.9-6.8-6.5L0,39.6l2-0.1l0.1,1.9c0.1,2.7,2.4,4.7,5.1,4.6h0.7c1.8-0.1,3.3-1.4,3.6-3.2
					c0.1-1.2,0.5-2.5,1.2-3.6c1.5-2.7,4.1-4.8,7.1-5.6l0.3-0.1c7.4-2.7,11.8-10.2,10.5-17.9l2-0.3C34,24,29.1,32.4,20.8,35.4
					l-0.4,0.1c-2.5,0.7-4.7,2.4-6,4.7c-0.5,0.9-0.8,1.9-0.9,3C13,45.9,10.7,47.9,8,48H7.3C7.1,48,7,48,6.9,48z"/>
			</g>
		</g>
	</g>
</g>
</svg>
